PathFileType	4	(X/Y/Z)	Patient4_TMGait_0pt4_02_left_15.trc.trc
DataRate	CameraRate	NumFrames	NumMarkers	Units	OrigDataRate	OrigDataStartFrame	OrigNumFrames
74.074074074074	74.074074074074	5	33	mm	74.074074074074	18	       141
Frame#	Time	Sacral			L.Shoulder			Chest			R.Shoulder			Neck			R.ASIS			L.ASIS			R.Thigh.Superior			R.Thigh.Lateral			R.Thigh.Inferior			R.Patella			L.Thigh.Superior			L.Thigh.Lateral			L.Thigh.Inferior			L.Patella			L.Shank.Superior			L.Shank.Lateral			L.Shank.Inferior			R.Shank.Superior			R.Shank.Lateral			R.Shank.Inferior			R.Heel			R.Midfoot.Superior			R.Midfoot.Lateral			R.Toe			L.Heel			L.Midfoot.Lateral			L.Midfoot.Superior			L.Toe			L.Elbow			L.Wrist			R.Elbow			R.Wrist			
		X1	Y1	Z1	X2	Y2	Z2	X3	Y3	Z3	X4	Y4	Z4	X5	Y5	Z5	X6	Y6	Z6	X7	Y7	Z7	X8	Y8	Z8	X9	Y9	Z9	X10	Y10	Z10	X11	Y11	Z11	X12	Y12	Z12	X13	Y13	Z13	X14	Y14	Z14	X15	Y15	Z15	X16	Y16	Z16	X17	Y17	Z17	X18	Y18	Z18	X19	Y19	Z19	X20	Y20	Z20	X21	Y21	Z21	X22	Y22	Z22	X23	Y23	Z23	X24	Y24	Z24	X25	Y25	Z25	X26	Y26	Z26	X27	Y27	Z27	X28	Y28	Z28	X29	Y29	Z29	X30	Y30	Z30	X31	Y31	Z31	X32	Y32	Z32	X33	Y33	Z33	

18	20.209500000000	849.905831073447	1007.524585114207	528.902759261495	1002.411696174358	1435.960199701636	326.207013860176	1130.421282438596	1366.379468515866	467.063993307532	1078.146153965465	1438.349400522861	653.114524852110	1010.347079587392	1495.305105774568	482.842528092182	1091.243033087957	941.785696824376	609.969772038568	1039.193370271520	964.517147492735	339.769426288851	1095.610187429467	731.432599210315	581.844469569685	1004.279408791728	632.227323309550	653.181844120665	1061.350465427010	571.460007198800	567.679785652608	1048.011504502708	487.760314376605	574.819814059390	1115.247291915887	777.582532693857	365.393335607448	1065.626957618876	649.205389403907	287.889340343553	1170.913475670921	590.002135362183	345.384269067316	1198.754863120206	528.926883699241	340.245017224244	1185.296342857399	458.736316586620	328.961352099963	1125.597805015465	326.005878116707	277.489994129893	1220.800487104041	231.277428043449	327.051804424386	1015.448178362120	400.678864679927	583.560847125837	941.093164043616	300.880634382500	649.448681779552	973.720721178072	204.469982430249	582.006903748361	832.625346822764	42.612892592229	553.853102991632	1004.544798832151	96.179426650194	585.940670189162	917.464870873841	36.803637731497	627.162675014264	1125.531005893650	43.378822194847	610.373144773171	1148.284062760036	50.645477230786	367.755898457039	1221.366105474551	53.655816195706	287.117836178379	1290.396402747118	133.876151645500	304.664347071286	1424.170925274492	107.140844299787	278.242476628169	879.482819497371	1098.860533089327	242.164921987585	860.680407403585	838.729878643803	253.957643880380	1224.846165678932	1131.847940399382	769.810022093629	1471.989528865208	1147.437843676361	708.583527128376	
19	20.223000000000	850.833406309627	1006.572785810748	526.858215431607	1001.959846689520	1435.357358912292	324.409197088698	1130.254863904021	1365.977217906776	465.107161783613	1077.900746406016	1437.678349924386	651.189759130145	1010.010028309389	1494.572361244577	481.063683289557	1092.162194527124	941.389890015768	608.576959940963	1040.487684327783	963.326772202868	338.061746458180	1094.947774304972	730.622928428054	581.018023156691	1002.416800149050	632.063562608623	652.307811016036	1059.193898530743	570.679723921046	567.267214359864	1045.045996426717	486.974662934991	574.372060532385	1116.565923715448	776.142103275533	363.732308472742	1065.723785114011	646.999927102160	287.527465340020	1171.367473681620	588.093333984753	344.224838513713	1198.691762263049	526.518248418520	339.637774084659	1184.584358601493	456.019883164608	328.845909245878	1123.220417537591	323.876055267378	278.187060949770	1217.336919949076	228.259560691882	327.694297308671	1011.933247360328	400.209695388631	583.206926143256	936.780050997850	301.003417414566	649.141381376939	968.935538289297	204.253620131816	581.929631895869	827.169581570737	42.618880668919	553.905701076543	999.086414380659	96.160635703860	585.994753775546	911.982765286496	36.788102419293	627.228633027843	1120.025888208027	43.376239508192	610.426431353166	1142.430159991274	49.795019461366	369.514377297756	1214.917676655827	51.248808085595	288.348891266858	1285.890308478582	129.556339350253	305.497058395625	1418.693105938544	99.692968769885	278.090229182280	877.201781695114	1099.193636432328	240.836107963359	857.714693401769	839.048238276963	253.485177081141	1227.443219592371	1132.575882026083	766.769991529463	1474.169271238216	1153.091892797798	706.095323450672	
20	20.236500000000	851.935483672442	1005.462367106046	524.496195144069	1001.611260653343	1434.600193532249	322.364398643128	1130.122611974069	1365.533080525307	463.025287564443	1077.472807419933	1436.928989686806	649.106825637997	1009.634267145623	1493.732915716559	479.039347774066	1093.212264964383	940.893970307541	607.132429518888	1042.147476662148	961.992312792554	336.306585814174	1094.556017691810	729.717209326218	580.168940588611	1000.773714129423	631.819848040064	651.317001117420	1057.334944809882	569.809286185869	566.769903499248	1042.370345833997	486.069888554129	573.806801843538	1118.184255108080	774.412935476174	362.105726120504	1066.112454462889	644.664724348338	287.124216491398	1171.932812817056	585.957548168782	343.279327724250	1198.566968945605	523.649480384157	339.220331627861	1183.592481722735	452.775980108731	328.866742333672	1120.040593414769	321.471557977610	278.959494049423	1212.616576055520	224.580582930267	328.555393869081	1008.665754233016	399.628131698295	582.745797015015	932.643296542631	301.086582191995	648.753519103784	964.226264209531	203.963033382001	581.795441188318	821.720142430103	42.590438130623	553.956765496425	993.613732013180	96.133537105844	586.035949954613	906.501967860775	36.758005480000	627.294340597084	1114.520324609655	43.370119215596	610.488021617063	1134.578830692634	48.550014842745	371.323710908168	1206.455092050013	48.496359201978	289.601465006009	1279.608604592286	124.560976353087	306.629218634638	1411.356863626019	91.233985204857	278.104157791992	875.471910338241	1099.212128840267	239.121222151283	855.890038671182	838.995298964703	252.492488196912	1229.339206625748	1132.978303849686	763.878024026678	1475.719850044196	1157.531698575687	703.870707258085	
21	20.250000000000	853.183120360004	1004.225914600373	521.843112389273	1001.403684958638	1433.692483564691	320.061763306846	1130.050706269159	1365.041379361401	460.813260049341	1076.897272572475	1436.115128000399	646.859037524382	1009.259253452102	1492.806485474246	476.746995447194	1094.371087691362	940.292050125552	605.608403022507	1044.114068550870	960.549980277170	334.505559454715	1094.468850621923	728.716115567533	579.267102737922	999.415178117859	631.478446495075	650.179547495006	1055.827764721509	568.837463968708	566.139413790926	1040.052589096341	485.022717127814	573.080127002631	1120.012197700889	772.413037212536	360.535192966396	1066.701751353835	642.272125245827	286.658235007332	1172.519342608195	583.652590983504	342.554699152543	1198.288918153019	520.445519563924	339.021421005503	1182.344247673432	449.170356220364	329.003495262730	1116.322226701094	318.877347641680	279.721931599250	1207.029306047854	220.482603631810	329.593744403797	1005.692761274262	398.914382131393	582.142248947770	928.729158251116	301.123947019390	648.262109315106	959.613972542122	203.590223536776	581.589719370701	816.277541015036	42.530035430346	554.011313780911	988.130058959100	96.099289140037	586.062900746600	901.027016897066	36.710604838276	627.360542460716	1109.019992627600	43.349626399144	610.558612910856	1125.383469459447	47.006721997205	373.044394768604	1196.711256842240	45.616828563612	290.804479409808	1272.096464148707	119.255257508768	308.046017450485	1402.799480155030	82.395048586947	278.410564521603	874.342198799554	1098.894655254859	237.022355313013	855.190007753792	838.557706043876	250.975455877078	1230.526484868119	1133.024325160567	761.153094824187	1476.675579074193	1160.715873669975	701.930250863892	
22	20.263500000000	854.536940072536	1002.914065031144	518.939153481358	1001.373239673254	1432.655132536565	317.498127471809	1130.065705178886	1364.506865850869	458.468148094513	1076.221843697953	1435.268440437538	644.440649874702	1008.926422279564	1491.829286981787	474.168110071472	1095.607219690158	939.591167740172	603.972294880057	1046.303896250471	959.059694369229	332.654095272111	1094.702275472373	727.632856633590	578.264019722904	998.400457816646	631.029040402489	648.859815583844	1054.720020112411	567.761796278655	565.319967388582	1038.160200260317	483.814265643966	572.147124644665	1121.974640654374	770.220838928132	359.023430833251	1067.417533274224	639.926703313676	286.112519263351	1173.076579200402	581.287302491818	342.029544923931	1197.819446636164	517.083406643802	339.034564300716	1180.907447204939	445.412424913957	329.215478566041	1112.360357131819	316.223355028309	280.385968069022	1200.991120244777	216.247693699453	330.749284212803	1003.057131055691	398.057644524048	581.361067663231	925.079380479430	301.119436763126	647.642633028150	955.120545513806	203.136591366876	581.298555371594	810.841500339607	42.451279297170	554.075387177092	982.643356635922	96.062173676466	586.076958162496	895.562645170560	36.646467485116	627.426864920412	1103.532184464040	43.301856332488	610.638723722643	1115.515582497067	45.297745234825	374.563640381727	1186.413124735472	42.839831596801	291.892066871924	1263.906685247221	114.029579994495	309.687247644417	1393.657030357198	73.821936806750	279.052624950451	873.870911962330	1098.235961893070	234.545024336081	855.599583666292	837.741823281852	248.933875048619	1230.998553321128	1132.699484712269	758.600030053242	1477.063781897223	1162.606404930770	700.287292814067	
